<svg width="104" height="105" viewBox="0 0 104 105" fill="none" xmlns="http://www.w3.org/2000/svg">
<g id="Portfolio-website-logo-2">
<path id="Vector" d="M28.9236 73.7917C23.9373 65.0883 19.0493 56.56 14.1036 47.9267C13.7453 48.3933 13.8724 48.8308 13.8724 49.2217C13.8609 59.5408 13.8667 69.86 13.8667 80.1733C13.8667 80.64 13.8667 81.1067 13.8667 81.6433C9.68356 81.6433 5.64489 81.6433 1.61778 81.6433C1.36355 80.675 1.34622 26.915 1.60622 25.8067C1.93555 25.7892 2.288 25.76 2.63467 25.76C6.14178 25.7542 9.65467 25.7833 13.1618 25.7367C13.988 25.725 14.4213 26.0167 14.82 26.7283C19.1591 34.3642 23.5271 41.9767 27.8893 49.595C28.2013 50.1375 28.5191 50.6683 28.9178 51.3567C29.2587 50.7967 29.5071 50.4 29.7382 49.9917C34.1582 42.2683 38.5898 34.5508 42.9751 26.81C43.4316 26.005 43.9227 25.725 44.824 25.7367C48.2156 25.795 51.6071 25.76 54.9987 25.76C55.38 25.76 55.7613 25.76 56.3969 25.76C47.1871 41.8542 38.1102 57.7325 28.9236 73.7917Z" fill="#D499B9"/>
<path id="Vector_2" d="M60.2622 81.4858C60.216 80.92 60.164 80.5817 60.164 80.2433C60.1582 75.9033 60.1871 71.5575 60.1409 67.2175C60.1293 66.3425 60.4818 65.9575 61.1867 65.5958C67.3458 62.4517 73.4876 59.2842 79.6351 56.1167C80.3342 55.755 81.0276 55.3875 81.9231 54.9208C81.4262 54.6175 81.0911 54.39 80.7387 54.1917C74.256 50.5575 67.7849 46.9117 61.2849 43.3183C60.4471 42.8575 60.1293 42.3442 60.1467 41.3758C60.1987 37.0767 60.1698 32.7717 60.1698 28.4667C60.1698 28.0467 60.1698 27.6208 60.1698 26.8975C74.4293 36.3008 88.4347 45.535 102.596 54.8742C88.4289 63.7817 74.4236 72.5783 60.2622 81.4858Z" fill="#D499B9"/>
<path id="Vector_3" d="M58.0724 27.2942C58.0724 45.395 58.0724 63.49 58.0724 81.655C53.9587 81.655 49.9258 81.655 45.7311 81.655C45.7311 81.1592 45.7311 80.7333 45.7311 80.3075C45.7311 70.1108 45.7369 59.92 45.7253 49.7233C45.7253 48.9942 45.8293 48.335 46.2107 47.6758C49.9604 41.1308 53.6813 34.5625 57.408 28.0058C57.5582 27.7375 57.7431 27.4867 57.9107 27.23C57.9684 27.2533 58.0204 27.2708 58.0724 27.2942Z" fill="#D499B9"/>
</g>
</svg>
